<svg width="600" height="450" viewBox="0 0 600 450" fill="none" xmlns="http://www.w3.org/2000/svg" role="img" aria-label="Product dashboard preview">
  <rect width="600" height="450" rx="20" fill="#EEF2FF"/>

  <!-- Browser window -->
  <rect x="40" y="40" width="520" height="370" rx="14" fill="#FFFFFF" stroke="#E2E8F0" stroke-width="1.5"/>
  <rect x="40" y="40" width="520" height="40" rx="14" fill="#F1F5F9"/>
  <circle cx="64" cy="60" r="5" fill="#F87171"/>
  <circle cx="82" cy="60" r="5" fill="#FBBF24"/>
  <circle cx="100" cy="60" r="5" fill="#34D399"/>

  <!-- Sidebar -->
  <rect x="56" y="96" width="120" height="298" rx="10" fill="#F8FAFC"/>
  <rect x="72" y="116" width="88" height="12" rx="6" fill="#C7D2FE"/>
  <rect x="72" y="148" width="70" height="10" rx="5" fill="#E2E8F0"/>
  <rect x="72" y="172" width="70" height="10" rx="5" fill="#E2E8F0"/>
  <rect x="72" y="196" width="70" height="10" rx="5" fill="#E2E8F0"/>
  <rect x="72" y="220" width="70" height="10" rx="5" fill="#E2E8F0"/>

  <!-- Main content cards -->
  <rect x="196" y="96" width="160" height="92" rx="12" fill="#EEF2FF"/>
  <rect x="216" y="116" width="60" height="10" rx="5" fill="#818CF8"/>
  <rect x="216" y="140" width="100" height="16" rx="6" fill="#4338CA"/>

  <rect x="372" y="96" width="160" height="92" rx="12" fill="#ECFDF5"/>
  <rect x="392" y="116" width="60" height="10" rx="5" fill="#34D399"/>
  <rect x="392" y="140" width="100" height="16" rx="6" fill="#059669"/>

  <!-- Chart -->
  <rect x="196" y="204" width="336" height="190" rx="12" fill="#FFFFFF" stroke="#E2E8F0" stroke-width="1.5"/>
  <rect x="220" y="320" width="28" height="50" rx="4" fill="#C7D2FE"/>
  <rect x="262" y="290" width="28" height="80" rx="4" fill="#A5B4FC"/>
  <rect x="304" y="260" width="28" height="110" rx="4" fill="#818CF8"/>
  <rect x="346" y="300" width="28" height="70" rx="4" fill="#A5B4FC"/>
  <rect x="388" y="240" width="28" height="130" rx="4" fill="#6366F1"/>
  <rect x="430" y="270" width="28" height="100" rx="4" fill="#818CF8"/>
  <rect x="472" y="230" width="28" height="140" rx="4" fill="#4F46E5"/>
</svg>
